<svg width="22" height="22" viewBox="0 0 22 22" fill="none" xmlns="http://www.w3.org/2000/svg">
<path d="M11 0C4.92479 0 0 4.92479 0 11C0 17.0752 4.92479 22 11 22C17.0752 22 22 17.0752 22 11C22 4.92479 17.0752 0 11 0ZM11.5825 16.1054C11.3621 16.3235 11.055 16.4322 10.6608 16.4322C10.258 16.4322 9.94629 16.3263 9.72583 16.1127C9.50537 15.8987 9.39446 15.598 9.39446 15.2093C9.39446 14.8065 9.50263 14.5021 9.7185 14.2954C9.93438 14.0896 10.2483 13.9865 10.6608 13.9865C11.0591 13.9865 11.3671 14.0915 11.5862 14.3023C11.8044 14.5136 11.9135 14.8156 11.9135 15.2093C11.9135 15.5879 11.8035 15.8863 11.5825 16.1054ZM13.9567 9.54663C13.717 9.93025 13.261 10.362 12.59 10.8419C12.1293 11.1824 11.8378 11.4414 11.7164 11.6188C11.5935 11.797 11.533 12.0294 11.533 12.3168V12.7481H9.62683V12.2155C9.62683 11.7553 9.72492 11.3543 9.922 11.0142C10.1186 10.6737 10.4784 10.3116 11.0009 9.92796C11.5046 9.56817 11.8365 9.27575 11.9973 9.05025C12.1582 8.82475 12.238 8.57267 12.238 8.29492C12.238 7.98325 12.1229 7.74583 11.8928 7.58267C11.6628 7.4195 11.3415 7.33792 10.9285 7.33792C10.2094 7.33792 9.38896 7.57304 8.46817 8.04329L7.68396 6.46754C8.75325 5.86804 9.88808 5.56829 11.0871 5.56829C12.0748 5.56829 12.8608 5.80571 13.4434 6.28054C14.0259 6.75538 14.317 7.38833 14.317 8.17988C14.3165 8.70742 14.1969 9.163 13.9567 9.54663Z" fill="#458FF6"/>
</svg>
